<mxfile host="app.diagrams.net" modified="2024-01-19T23:26:45.676Z" agent="Mozilla/5.0 (X11; Ubuntu; Linux x86_64; rv:121.0) Gecko/20100101 Firefox/121.0" etag="DoLUwnCgqEDRFqTFFLKd" version="22.1.21" type="device">
  <diagram name="Page-1" id="6ExLXvzCpo_21D9bRn0G">
    <mxGraphModel dx="1078" dy="834" grid="1" gridSize="10" guides="1" tooltips="1" connect="1" arrows="1" fold="1" page="0" pageScale="1" pageWidth="850" pageHeight="1100" math="0" shadow="0">
      <root>
        <mxCell id="0" />
        <mxCell id="1" parent="0" />
        <mxCell id="etCVSKNlZC4J72cC5KZh-5" style="edgeStyle=none;curved=1;rounded=0;orthogonalLoop=1;jettySize=auto;html=1;exitX=0.5;exitY=1;exitDx=0;exitDy=0;entryX=0.5;entryY=0;entryDx=0;entryDy=0;fontSize=12;startSize=8;endSize=8;strokeWidth=2;" parent="1" source="etCVSKNlZC4J72cC5KZh-1" target="etCVSKNlZC4J72cC5KZh-3" edge="1">
          <mxGeometry relative="1" as="geometry" />
        </mxCell>
        <mxCell id="etCVSKNlZC4J72cC5KZh-1" value="&lt;font style=&quot;font-size: 11px;&quot; face=&quot;Times New Roman&quot;&gt;SM_INIT&lt;/font&gt;" style="rounded=0;whiteSpace=wrap;html=1;fontSize=11;fillColor=#e1d5e7;strokeColor=#9673a6;" parent="1" vertex="1">
          <mxGeometry y="-60" width="90" height="30" as="geometry" />
        </mxCell>
        <mxCell id="etCVSKNlZC4J72cC5KZh-2" value="&lt;font style=&quot;font-size: 11px;&quot; face=&quot;Times New Roman&quot;&gt;EST&lt;sub style=&quot;font-size: 11px;&quot;&gt;0&lt;/sub&gt;&lt;/font&gt;" style="ellipse;whiteSpace=wrap;html=1;aspect=fixed;fontSize=11;fillColor=#dae8fc;strokeColor=#6c8ebf;" parent="1" vertex="1">
          <mxGeometry x="-47.5" y="-90" width="30" height="30" as="geometry" />
        </mxCell>
        <mxCell id="rVgyCpVDoWpBUhVY3hyX-4" style="edgeStyle=none;curved=1;rounded=0;orthogonalLoop=1;jettySize=auto;html=1;entryX=0.5;entryY=0;entryDx=0;entryDy=0;fontSize=12;startSize=8;endSize=8;strokeWidth=2;" edge="1" parent="1" source="etCVSKNlZC4J72cC5KZh-3" target="rVgyCpVDoWpBUhVY3hyX-8">
          <mxGeometry relative="1" as="geometry">
            <mxPoint x="45" y="60" as="targetPoint" />
          </mxGeometry>
        </mxCell>
        <mxCell id="etCVSKNlZC4J72cC5KZh-3" value="&lt;font style=&quot;font-size: 11px;&quot; face=&quot;Times New Roman&quot;&gt;SM_GO_BACK&lt;/font&gt;" style="rounded=0;whiteSpace=wrap;html=1;fontSize=11;fillColor=#e1d5e7;strokeColor=#9673a6;" parent="1" vertex="1">
          <mxGeometry width="90" height="30" as="geometry" />
        </mxCell>
        <mxCell id="etCVSKNlZC4J72cC5KZh-4" value="&lt;font style=&quot;font-size: 11px;&quot; face=&quot;Times New Roman&quot;&gt;EST&lt;sub style=&quot;font-size: 11px;&quot;&gt;1&lt;/sub&gt;&lt;/font&gt;" style="ellipse;whiteSpace=wrap;html=1;aspect=fixed;fontSize=11;fillColor=#dae8fc;strokeColor=#6c8ebf;" parent="1" vertex="1">
          <mxGeometry x="-47.5" y="-30" width="30" height="30" as="geometry" />
        </mxCell>
        <mxCell id="rVgyCpVDoWpBUhVY3hyX-14" style="edgeStyle=orthogonalEdgeStyle;rounded=0;orthogonalLoop=1;jettySize=auto;html=1;exitX=0;exitY=0.5;exitDx=0;exitDy=0;entryX=0.5;entryY=0;entryDx=0;entryDy=0;fontSize=12;startSize=8;endSize=8;strokeWidth=2;" edge="1" parent="1" source="etCVSKNlZC4J72cC5KZh-8" target="rVgyCpVDoWpBUhVY3hyX-12">
          <mxGeometry relative="1" as="geometry" />
        </mxCell>
        <mxCell id="rVgyCpVDoWpBUhVY3hyX-16" style="edgeStyle=orthogonalEdgeStyle;rounded=0;orthogonalLoop=1;jettySize=auto;html=1;entryX=0.5;entryY=0;entryDx=0;entryDy=0;fontSize=12;startSize=8;endSize=8;exitX=1;exitY=0.5;exitDx=0;exitDy=0;strokeWidth=2;" edge="1" parent="1" source="etCVSKNlZC4J72cC5KZh-8" target="rVgyCpVDoWpBUhVY3hyX-15">
          <mxGeometry relative="1" as="geometry" />
        </mxCell>
        <mxCell id="etCVSKNlZC4J72cC5KZh-8" value="error &amp;lt; umbral" style="rhombus;whiteSpace=wrap;html=1;fontSize=11;fillColor=#d5e8d4;strokeColor=#82b366;fontFamily=Times New Roman;" parent="1" vertex="1">
          <mxGeometry x="5" y="180" width="80" height="80" as="geometry" />
        </mxCell>
        <mxCell id="etCVSKNlZC4J72cC5KZh-9" value="1" style="text;html=1;strokeColor=none;fillColor=none;align=center;verticalAlign=middle;whiteSpace=wrap;rounded=0;fontSize=11;" parent="1" vertex="1">
          <mxGeometry x="-17.5" y="190" width="22.5" height="20" as="geometry" />
        </mxCell>
        <mxCell id="etCVSKNlZC4J72cC5KZh-10" value="0" style="text;html=1;strokeColor=none;fillColor=none;align=center;verticalAlign=middle;whiteSpace=wrap;rounded=0;fontSize=11;" parent="1" vertex="1">
          <mxGeometry x="85" y="190" width="22.5" height="20" as="geometry" />
        </mxCell>
        <mxCell id="rVgyCpVDoWpBUhVY3hyX-5" style="edgeStyle=none;curved=1;rounded=0;orthogonalLoop=1;jettySize=auto;html=1;entryX=0.5;entryY=0;entryDx=0;entryDy=0;fontSize=12;startSize=8;endSize=8;strokeWidth=2;exitX=0.5;exitY=1;exitDx=0;exitDy=0;" edge="1" parent="1" source="rVgyCpVDoWpBUhVY3hyX-8">
          <mxGeometry relative="1" as="geometry">
            <mxPoint x="45" y="90" as="sourcePoint" />
            <mxPoint x="45" y="120" as="targetPoint" />
          </mxGeometry>
        </mxCell>
        <mxCell id="rVgyCpVDoWpBUhVY3hyX-11" style="edgeStyle=none;curved=1;rounded=0;orthogonalLoop=1;jettySize=auto;html=1;entryX=0.5;entryY=0;entryDx=0;entryDy=0;fontSize=12;startSize=8;endSize=8;strokeWidth=2;" edge="1" parent="1" source="rVgyCpVDoWpBUhVY3hyX-7">
          <mxGeometry relative="1" as="geometry">
            <mxPoint x="44.999999999999886" y="180" as="targetPoint" />
          </mxGeometry>
        </mxCell>
        <mxCell id="rVgyCpVDoWpBUhVY3hyX-7" value="&lt;div&gt;&lt;font style=&quot;font-size: 11px;&quot; face=&quot;Times New Roman&quot;&gt;SM_ALLING&lt;/font&gt;&lt;/div&gt;" style="rounded=0;whiteSpace=wrap;html=1;fontSize=11;fillColor=#e1d5e7;strokeColor=#9673a6;" vertex="1" parent="1">
          <mxGeometry y="120" width="90" height="30" as="geometry" />
        </mxCell>
        <mxCell id="rVgyCpVDoWpBUhVY3hyX-8" value="moveDistAngle(1.0,10000)" style="rounded=1;whiteSpace=wrap;html=1;fontSize=11;arcSize=60;fillColor=#fff2cc;strokeColor=#d6b656;fontFamily=Times New Roman;" vertex="1" parent="1">
          <mxGeometry x="-30" y="60" width="150" height="30" as="geometry" />
        </mxCell>
        <mxCell id="rVgyCpVDoWpBUhVY3hyX-9" value="&lt;font style=&quot;font-size: 11px;&quot; face=&quot;Times New Roman&quot;&gt;EST&lt;sub&gt;2&lt;/sub&gt;&lt;/font&gt;" style="ellipse;whiteSpace=wrap;html=1;aspect=fixed;fontSize=11;fillColor=#dae8fc;strokeColor=#6c8ebf;" vertex="1" parent="1">
          <mxGeometry x="-47.5" y="90" width="30" height="30" as="geometry" />
        </mxCell>
        <mxCell id="rVgyCpVDoWpBUhVY3hyX-12" value="moveAngle(+/- 0.1,100)" style="rounded=1;whiteSpace=wrap;html=1;fontSize=11;arcSize=60;fillColor=#fff2cc;strokeColor=#d6b656;fontFamily=Times New Roman;" vertex="1" parent="1">
          <mxGeometry x="-120" y="270" width="150" height="30" as="geometry" />
        </mxCell>
        <mxCell id="rVgyCpVDoWpBUhVY3hyX-15" value="moveAngle(+/- 0.1,100)" style="rounded=1;whiteSpace=wrap;html=1;fontSize=11;arcSize=60;fillColor=#fff2cc;strokeColor=#d6b656;fontFamily=Times New Roman;" vertex="1" parent="1">
          <mxGeometry x="60" y="270" width="150" height="30" as="geometry" />
        </mxCell>
      </root>
    </mxGraphModel>
  </diagram>
</mxfile>
